# xmcd
#
# Track frame offsets: 
#        150
#        15491
#        33161
#        50279
#        76483
#        94058
#        112138
#        132443
#        151740
#        168966
#        189784
#        202047
#        218993
#        235320
#        248005
#        264782
#        286711
#        306273
#        326579
#
# Disc length: 4643 seconds
#
# Revision: 0
# Processed by: cddbd v1.5.2PL0 Copyright (c) Steve Scherf et al.
# Submitted via: ExactAudioCopy v0.99pb5
#
DISCID=f6122113
DTITLE=Various Artist - STREET CODE 2
DYEAR=2007
DGENRE=Blues
TTITLE0=LIKE THIS
TTITLE1=I LIKE THAT feat CHINGY, NATE DOG and I-20
TTITLE2=LET`S RIDE feat, FATMAN SCOOP
TTITLE3=DROP feat, FATMAN SCOOP
TTITLE4=WHY U MAD AT ME
TTITLE5=B-BOY STANCE
TTITLE6=GET BACK
TTITLE7=SHAKE YA ASS
TTITLE8=DO IT, DON`T STOP feat. ENVYI
TTITLE9=IF IT'S COOL
TTITLE10=ANGEL
TTITLE11=LOVE AND WAR
TTITLE12=YES SIR
TTITLE13=GOTTA GETCHA
TTITLE14=HEAT IT OUT
TTITLE15=GIVE PROPS
TTITLE16=I`M A WINNER
TTITLE17=HOW YA LIVIN'feat NAS
TTITLE18=DILEMMA featuring KELLY ROWLAND
EXTD=
EXTT0=
EXTT1=
EXTT2=
EXTT3=
EXTT4=
EXTT5=
EXTT6=
EXTT7=
EXTT8=
EXTT9=
EXTT10=
EXTT11=
EXTT12=
EXTT13=
EXTT14=
EXTT15=
EXTT16=
EXTT17=
EXTT18=
PLAYORDER=
